<svg xmlns="http://www.w3.org/2000/svg" viewBox="0 0 1000 1000"><rect width="1000" height="1000" rx="60" fill="#031014"/><circle cx="500" cy="470" r="295" fill="none" stroke="#48d9ff" stroke-width="8"/><path d="M505 214c-104 57-185 138-240 243 78-35 141-43 200-31-72 54-125 116-157 187 65-27 128-35 189-23-28 60-41 119-38 179 97-117 177-240 230-372 34-85 48-145 46-183-72 20-149 20-230 0Z" fill="#071b22" stroke="#48d9ff" stroke-width="10"/><path d="M559 256c-28 163-95 322-198 478" fill="none" stroke="#9beaff" stroke-width="10"/><text x="70" y="100" fill="#e3f9ff" font-family="monospace" font-size="34" letter-spacing="7">CHAINLING #4</text><text x="70" y="155" fill="#48d9ff" font-family="monospace" font-size="22">CYAN DRIFT · 6,666</text><text x="70" y="900" fill="#fff" font-family="system-ui" font-weight="700" font-size="48">Built before the crowd.</text></svg>